<?xml version="1.0" encoding="UTF-8" standalone="no"?>
<!-- Created with Inkscape (http://www.inkscape.org/) -->

<svg
   xmlns:dc="http://purl.org/dc/elements/1.1/"
   xmlns:cc="http://creativecommons.org/ns#"
   xmlns:rdf="http://www.w3.org/1999/02/22-rdf-syntax-ns#"
   xmlns:svg="http://www.w3.org/2000/svg"
   xmlns="http://www.w3.org/2000/svg"
   xmlns:sodipodi="http://sodipodi.sourceforge.net/DTD/sodipodi-0.dtd"
   xmlns:inkscape="http://www.inkscape.org/namespaces/inkscape"
   width="210mm"
   height="297mm"
   viewBox="0 0 744.09448819 1052.3622047"
   id="svg2"
   version="1.1"
   inkscape:version="0.92.4 (5da689c313, 2019-01-14)"
   sodipodi:docname="logo.svg">
  <defs
     id="defs4">
    <inkscape:perspective
       sodipodi:type="inkscape:persp3d"
       inkscape:vp_x="-203.2037 : 1009.4147 : 1"
       inkscape:vp_y="0 : 799.60555 : 0"
       inkscape:vp_z="-265.27846 : 1166.6197 : 1"
       inkscape:persp3d-origin="49.390812 : 790.56642 : 1"
       id="perspective877" />
  </defs>
  <sodipodi:namedview
     id="base"
     pagecolor="#ffffff"
     bordercolor="#666666"
     borderopacity="1.0"
     inkscape:pageopacity="0.0"
     inkscape:pageshadow="2"
     inkscape:zoom="0.35"
     inkscape:cx="1656.5103"
     inkscape:cy="368.56807"
     inkscape:document-units="px"
     inkscape:current-layer="layer2"
     showgrid="false"
     inkscape:window-width="2560"
     inkscape:window-height="1346"
     inkscape:window-x="-11"
     inkscape:window-y="49"
     inkscape:window-maximized="1" />
  <metadata
     id="metadata7">
    <rdf:RDF>
      <cc:Work
         rdf:about="">
        <dc:format>image/svg+xml</dc:format>
        <dc:type
           rdf:resource="http://purl.org/dc/dcmitype/StillImage" />
        <dc:title />
      </cc:Work>
    </rdf:RDF>
  </metadata>
  <g
     inkscape:groupmode="layer"
     id="layer2"
     inkscape:label="Layer 2"
     style="display:inline">
    <rect
       y="532.37524"
       x="1087.8521"
       height="234.375"
       width="843.75"
       id="rect4888"
       style="opacity:1;fill:#ffffff;fill-opacity:1;stroke:none;stroke-width:7.39979458;stroke-linecap:round;stroke-linejoin:bevel;stroke-miterlimit:4;stroke-dasharray:none;stroke-dashoffset:0;stroke-opacity:0.10588235"
       inkscape:export-filename="C:\Users\yanni\Desktop\enable3d-logo1.png"
       inkscape:export-xdpi="96"
       inkscape:export-ydpi="96" />
    <rect
       style="opacity:1;fill:#ffffff;fill-opacity:1;stroke:none;stroke-width:12.48011017;stroke-linecap:round;stroke-linejoin:bevel;stroke-miterlimit:4;stroke-dasharray:none;stroke-dashoffset:0;stroke-opacity:0.10588235"
       id="rect4742"
       width="750"
       height="750"
       x="11.0663"
       y="114.5182"
       inkscape:export-filename="C:\Users\yanni\Desktop\enable3d-logo2.png"
       inkscape:export-xdpi="96"
       inkscape:export-ydpi="96" />
    <g
       id="text4720"
       style="font-style:normal;font-weight:normal;font-size:26.91502571px;line-height:1.25;font-family:sans-serif;letter-spacing:0px;word-spacing:0px;fill:#393939;fill-opacity:1;stroke:none;stroke-width:0.67287564"
       aria-label="enable3d "
       transform="translate(398.03516,107.14236)" />
    <g
       id="g4863"
       transform="translate(2162.6116,1299.9101)"
       inkscape:export-filename="C:\Users\yanni\Desktop\enable3d-logo2.png"
       inkscape:export-xdpi="96"
       inkscape:export-ydpi="96">
      <path
         d="M -1988.3153,-521.60533 -1988.3153,-516.87417 -2030.2123,-516.87417 -2030.2123,-516.55897 Q -2030.2123,-506.93893 -2025.2183,-501.68209 -2020.1717,-496.42525 -2011.0249,-496.42525 -2006.3988,-496.42525 -2001.3523,-497.89717 -1996.3057,-499.36909 -1990.5757,-502.36549 L -1990.5757,-492.74549 Q -1996.0954,-490.48505 -2001.2471,-489.38109 -2006.3463,-488.22461 -2011.13,-488.22461 -2024.8503,-488.22461 -2032.5779,-496.42525 -2040.3055,-504.67849 -2040.3055,-519.13481 -2040.3055,-533.22317 -2032.7356,-541.63409 -2025.1657,-550.04505 -2012.5493,-550.04505 -2001.2997,-550.04505 -1994.8338,-542.42261 -1988.3153,-534.80021 -1988.3153,-521.60553 Z M -1997.9879,-524.44401 Q -1998.1983,-532.96013 -2002.0357,-537.37585 -2005.8206,-541.84417 -2012.9699,-541.84417 -2019.9615,-541.84417 -2024.4823,-537.21817 -2029.0032,-532.59213 -2029.8443,-524.39145 Z"
         style="font-style:normal;font-variant:normal;font-weight:normal;font-stretch:normal;font-size:26.91502571px;line-height:1.25;font-family:'DejaVu Sans Mono';-inkscape-font-specification:'DejaVu Sans Mono';letter-spacing:0.92357385px;word-spacing:0px;fill:#393939;fill-opacity:1;stroke:none;stroke-width:2.69150257"
         id="path4759"
         inkscape:connector-curvature="0" />
      <path
         d="M -1923.0634,-526.23137 -1923.0634,-489.74889 -1932.7885,-489.74889 -1932.7885,-526.23137 Q -1932.7885,-534.16917 -1935.5747,-537.90153 -1938.3608,-541.63389 -1944.301,-541.63389 -1951.0823,-541.63389 -1954.7621,-536.79761 -1958.3893,-532.01389 -1958.3893,-523.02469 L -1958.3893,-489.74889 -1968.0619,-489.74889 -1968.0619,-548.62549 -1958.3893,-548.62549 -1958.3893,-539.79401 Q -1955.8135,-544.84057 -1951.3977,-547.41641 -1946.982,-550.04485 -1940.9366,-550.04485 -1931.9475,-550.04485 -1927.5317,-544.10461 -1923.0634,-538.21697 -1923.0634,-526.23137 Z"
         style="font-style:normal;font-variant:normal;font-weight:normal;font-stretch:normal;font-size:26.91502571px;line-height:1.25;font-family:'DejaVu Sans Mono';-inkscape-font-specification:'DejaVu Sans Mono';letter-spacing:0.92357385px;word-spacing:0px;fill:#393939;fill-opacity:1;stroke:none;stroke-width:2.69150257"
         id="path4761"
         inkscape:connector-curvature="0" />
      <path
         d="M -1872.9512,-519.34489 -1876.1579,-519.34489 Q -1884.6214,-519.34489 -1888.932,-516.34849 -1893.19,-513.40465 -1893.19,-507.51701 -1893.19,-502.20761 -1889.9833,-499.26377 -1886.7767,-496.31993 -1881.0993,-496.31993 -1873.1089,-496.31993 -1868.5354,-501.83961 -1863.962,-507.41185 -1863.9094,-517.18957 L -1863.9094,-519.34489 Z M -1854.1843,-523.34009 -1854.1843,-489.74889 -1863.9094,-489.74889 -1863.9094,-498.47525 Q -1867.0109,-493.21841 -1871.7421,-490.69509 -1876.4207,-488.22441 -1883.1495,-488.22441 -1892.1387,-488.22441 -1897.5006,-493.27097 -1902.8626,-498.37009 -1902.8626,-506.88617 -1902.8626,-516.71649 -1896.2915,-521.81561 -1889.6679,-526.91473 -1876.8938,-526.91473 L -1863.9094,-526.91473 -1863.9094,-528.43921 Q -1863.9614,-535.48341 -1867.4841,-538.63749 -1871.0061,-541.84417 -1878.7337,-541.84417 -1883.6751,-541.84417 -1888.7217,-540.42481 -1893.7683,-539.00549 -1898.552,-536.27193 L -1898.552,-545.94449 Q -1893.19,-547.99469 -1888.3011,-548.99349 -1883.3597,-550.04485 -1878.7337,-550.04485 -1871.4267,-550.04485 -1866.275,-547.88953 -1861.0707,-545.73425 -1857.8641,-541.42361 -1855.8665,-538.79521 -1855.0253,-534.90513 -1854.1843,-531.06765 -1854.1843,-523.34009 Z"
         style="font-style:normal;font-variant:normal;font-weight:normal;font-stretch:normal;font-size:26.91502571px;line-height:1.25;font-family:'DejaVu Sans Mono';-inkscape-font-specification:'DejaVu Sans Mono';letter-spacing:0.92357385px;word-spacing:0px;fill:#393939;fill-opacity:1;stroke:none;stroke-width:2.69150257"
         id="path4763"
         inkscape:connector-curvature="0" />
      <path
         d="M -1793.1378,-519.13461 Q -1793.1378,-530.38425 -1796.7125,-536.11421 -1800.2871,-541.84417 -1807.2787,-541.84417 -1814.3229,-541.84417 -1817.9501,-536.06165 -1821.5773,-530.33169 -1821.5773,-519.13461 -1821.5773,-507.99013 -1817.9501,-502.20761 -1814.3229,-496.42505 -1807.2787,-496.42505 -1800.2871,-496.42505 -1796.7125,-502.15501 -1793.1378,-507.88497 -1793.1378,-519.13461 Z M -1821.5773,-541.10821 Q -1819.2643,-545.41881 -1815.2165,-547.73185 -1811.1162,-550.04485 -1805.7543,-550.04485 -1795.1354,-550.04485 -1789.0375,-541.84417 -1782.9395,-533.69605 -1782.9395,-519.34489 -1782.9395,-504.78345 -1789.0901,-496.47765 -1795.188,-488.22441 -1805.8594,-488.22441 -1811.1162,-488.22441 -1815.164,-490.48485 -1819.1592,-492.79785 -1821.5773,-497.16101 L -1821.5773,-489.74889 -1831.2499,-489.74889 -1831.2499,-571.54533 -1821.5773,-571.54533 Z"
         style="font-style:normal;font-variant:normal;font-weight:normal;font-stretch:normal;font-size:26.91502571px;line-height:1.25;font-family:'DejaVu Sans Mono';-inkscape-font-specification:'DejaVu Sans Mono';letter-spacing:0.92357385px;word-spacing:0px;fill:#393939;fill-opacity:1;stroke:none;stroke-width:2.69150257"
         id="path4765"
         inkscape:connector-curvature="0" />
      <path
         d="M -1745.5014,-511.09165 Q -1745.5014,-504.57317 -1743.1359,-501.26137 -1740.7177,-497.94953 -1736.0391,-497.94953 L -1724.7369,-497.94953 -1724.7369,-489.74889 -1736.9853,-489.74889 Q -1745.6591,-489.74889 -1750.4429,-495.32113 -1755.174,-500.89337 -1755.174,-511.09165 L -1755.174,-564.55373 -1770.6817,-564.55373 -1770.6817,-572.12357 -1745.5014,-572.12357 Z"
         style="font-style:normal;font-variant:normal;font-weight:normal;font-stretch:normal;font-size:26.91502571px;line-height:1.25;font-family:'DejaVu Sans Mono';-inkscape-font-specification:'DejaVu Sans Mono';letter-spacing:0.92357385px;word-spacing:0px;fill:#393939;fill-opacity:1;stroke:none;stroke-width:2.69150257"
         id="path4767"
         inkscape:connector-curvature="0" />
      <path
         d="M -1655.4926,-521.60533 -1655.4926,-516.87417 -1697.3896,-516.87417 -1697.3896,-516.55897 Q -1697.3896,-506.93893 -1692.3956,-501.68209 -1687.3491,-496.42525 -1678.2022,-496.42525 -1673.5761,-496.42525 -1668.5296,-497.89717 -1663.483,-499.36909 -1657.7531,-502.36549 L -1657.7531,-492.74549 Q -1663.2727,-490.48505 -1668.4244,-489.38109 -1673.5236,-488.22461 -1678.3073,-488.22461 -1692.0277,-488.22461 -1699.7552,-496.42525 -1707.4828,-504.67849 -1707.4828,-519.13481 -1707.4828,-533.22317 -1699.9129,-541.63409 -1692.3431,-550.04505 -1679.7267,-550.04505 -1668.477,-550.04505 -1662.0111,-542.42261 -1655.4926,-534.80021 -1655.4926,-521.60553 Z M -1665.1652,-524.44401 Q -1665.3756,-532.96013 -1669.213,-537.37585 -1672.9979,-541.84417 -1680.1472,-541.84417 -1687.1388,-541.84417 -1691.6597,-537.21817 -1696.1805,-532.59213 -1697.0217,-524.39145 Z"
         style="font-style:normal;font-variant:normal;font-weight:normal;font-stretch:normal;font-size:26.91502571px;line-height:1.25;font-family:'DejaVu Sans Mono';-inkscape-font-specification:'DejaVu Sans Mono';letter-spacing:0.92357385px;word-spacing:0px;fill:#393939;fill-opacity:1;stroke:none;stroke-width:2.69150257"
         id="path4769"
         inkscape:connector-curvature="0" />
      <path
         d="M -1589.5447,-531.75105 Q -1581.8171,-529.70085 -1577.7168,-524.44401 -1573.6165,-519.23977 -1573.6165,-511.40705 -1573.6165,-500.57797 -1580.9235,-494.37489 -1588.1779,-488.22441 -1601.0572,-488.22441 -1606.4717,-488.22441 -1612.0965,-489.22321 -1617.7213,-490.22201 -1623.1359,-492.11445 L -1623.1359,-502.68069 Q -1617.7739,-499.89457 -1612.5697,-498.52781 -1607.3654,-497.16101 -1602.2137,-497.16101 -1593.4873,-497.16101 -1588.8087,-501.10365 -1584.1301,-505.04629 -1584.1301,-512.45845 -1584.1301,-519.29233 -1588.8087,-523.28753 -1593.4873,-527.33529 -1601.4777,-527.33529 L -1609.5733,-527.33529 -1609.5733,-536.06165 -1601.4777,-536.06165 Q -1594.1707,-536.06165 -1590.0704,-539.26833 -1585.97,-542.47501 -1585.97,-548.20493 -1585.97,-554.25033 -1589.8075,-557.45697 -1593.5925,-560.71625 -1600.6366,-560.71625 -1605.3152,-560.71625 -1610.3092,-559.66485 -1615.3032,-558.61349 -1620.7703,-556.51077 L -1620.7703,-566.28849 Q -1614.4095,-567.97069 -1609.4681,-568.81177 -1604.4741,-569.65285 -1600.6366,-569.65285 -1589.1767,-569.65285 -1582.3428,-563.87033 -1575.4563,-558.14037 -1575.4563,-548.62549 -1575.4563,-542.15957 -1579.0836,-537.84897 -1582.6582,-533.53837 -1589.5447,-531.75105 Z"
         style="font-style:normal;font-variant:normal;font-weight:normal;font-stretch:normal;font-size:26.91502571px;line-height:1.25;font-family:'DejaVu Sans Mono';-inkscape-font-specification:'DejaVu Sans Mono';letter-spacing:0.92357385px;word-spacing:0px;fill:#393939;fill-opacity:1;stroke:none;stroke-width:2.69150257"
         id="path4771"
         inkscape:connector-curvature="0" />
      <path
         d="M -1522.4576,-541.10821 -1522.4576,-571.54533 -1512.785,-571.54533 -1512.785,-489.74889 -1522.4576,-489.74889 -1522.4576,-497.16101 Q -1524.8757,-492.79785 -1528.9235,-490.48485 -1532.9187,-488.22441 -1538.1756,-488.22441 -1548.8469,-488.22441 -1554.9975,-496.47765 -1561.0954,-504.78345 -1561.0954,-519.34489 -1561.0954,-533.69605 -1554.9449,-541.84417 -1548.7944,-550.04485 -1538.1756,-550.04485 -1532.8661,-550.04485 -1528.8184,-547.73185 -1524.7706,-545.47141 -1522.4576,-541.10821 Z M -1550.8971,-519.13461 Q -1550.8971,-507.88497 -1547.3225,-502.15501 -1543.7478,-496.42505 -1536.7562,-496.42505 -1529.7646,-496.42505 -1526.1374,-502.20761 -1522.4576,-507.99013 -1522.4576,-519.13461 -1522.4576,-530.33169 -1526.1374,-536.06165 -1529.7646,-541.84417 -1536.7562,-541.84417 -1543.7478,-541.84417 -1547.3225,-536.11421 -1550.8971,-530.38425 -1550.8971,-519.13461 Z"
         style="font-style:normal;font-variant:normal;font-weight:normal;font-stretch:normal;font-size:26.91502571px;line-height:1.25;font-family:'DejaVu Sans Mono';-inkscape-font-specification:'DejaVu Sans Mono';letter-spacing:0.92357385px;word-spacing:0px;fill:#393939;fill-opacity:1;stroke:none;stroke-width:2.69150257"
         id="path4773"
         inkscape:connector-curvature="0" />
    </g>
    <g
       id="g4868"
       transform="translate(2092.9687,1299.9101)"
       inkscape:export-filename="C:\Users\yanni\Desktop\enable3d-logo2.png"
       inkscape:export-xdpi="96"
       inkscape:export-ydpi="96">
      <rect
         style="opacity:0.6;fill:#b0aef5;fill-opacity:1;stroke:none;stroke-width:19.24605942;stroke-linecap:round;stroke-linejoin:bevel;stroke-miterlimit:4;stroke-dasharray:none;stroke-dashoffset:0;stroke-opacity:0.10588235"
         id="rect4714"
         width="251.55765"
         height="251.55765"
         x="-1888.1361"
         y="20.23871"
         transform="matrix(0.89442719,0.4472136,-0.89442719,0.4472136,0,0)" />
      <path
         inkscape:connector-curvature="0"
         style="opacity:0.6;fill:#bbf0f9;fill-opacity:1;stroke:none;stroke-width:17.21419907;stroke-linecap:round;stroke-linejoin:bevel;stroke-miterlimit:4;stroke-dasharray:none;stroke-dashoffset:0;stroke-opacity:0.10588235"
         d="M -1706.9026,-1132.5595 -1931.9026,-1020.0595 -1931.9026,-795.05953 -1706.9026,-682.55953 Z"
         id="path4722" />
      <path
         id="path4724"
         d="M -1706.902,-1132.5595 -1481.902,-1020.0595 -1481.902,-795.05953 -1706.902,-682.55953 Z"
         style="opacity:0.6;fill:#9feaf6;fill-opacity:1;stroke:none;stroke-width:17.21419907;stroke-linecap:round;stroke-linejoin:bevel;stroke-miterlimit:4;stroke-dasharray:none;stroke-dashoffset:0;stroke-opacity:0.10588235"
         inkscape:connector-curvature="0" />
    </g>
    <rect
       style="opacity:0.6;fill:#b0aef5;fill-opacity:1;stroke:none;stroke-width:6.79363203;stroke-linecap:round;stroke-linejoin:bevel;stroke-miterlimit:4;stroke-dasharray:none;stroke-dashoffset:0;stroke-opacity:0.10588235"
       id="rect4726"
       width="88.796883"
       height="88.796883"
       x="1411.5111"
       y="67.514374"
       transform="matrix(0.89442719,0.44721359,-0.89442719,0.44721359,0,0)"
       inkscape:export-filename="C:\Users\yanni\Desktop\enable3d-logo1.png"
       inkscape:export-xdpi="96"
       inkscape:export-ydpi="96" />
    <path
       inkscape:connector-curvature="0"
       style="opacity:0.6;fill:#bbf0f9;fill-opacity:1;stroke:none;stroke-width:6.07640934;stroke-linecap:round;stroke-linejoin:bevel;stroke-miterlimit:4;stroke-dasharray:none;stroke-dashoffset:0;stroke-opacity:0.10588235"
       d="M 1202.1082,556.52853 1122.6859,596.23973 1122.6859,675.66213 1202.1082,715.37323 Z"
       id="path4734"
       inkscape:export-filename="C:\Users\yanni\Desktop\enable3d-logo1.png"
       inkscape:export-xdpi="96"
       inkscape:export-ydpi="96" />
    <path
       id="path4736"
       d="M 1202.1084,556.52853 1281.5308,596.23973 1281.5308,675.66213 1202.1084,715.37323 Z"
       style="opacity:0.6;fill:#9feaf6;fill-opacity:1;stroke:none;stroke-width:6.07640934;stroke-linecap:round;stroke-linejoin:bevel;stroke-miterlimit:4;stroke-dasharray:none;stroke-dashoffset:0;stroke-opacity:0.10588235"
       inkscape:connector-curvature="0"
       inkscape:export-filename="C:\Users\yanni\Desktop\enable3d-logo1.png"
       inkscape:export-xdpi="96"
       inkscape:export-ydpi="96" />
    <g
       transform="matrix(1.1005326,0,0,1.1005326,3556.3949,1232.6854)"
       id="g4886"
       inkscape:export-filename="C:\Users\yanni\Desktop\enable3d-logo1.png"
       inkscape:export-xdpi="96"
       inkscape:export-ydpi="96">
      <path
         inkscape:connector-curvature="0"
         id="path4870"
         style="font-style:normal;font-variant:normal;font-weight:normal;font-stretch:normal;font-size:26.91502571px;line-height:1.25;font-family:'DejaVu Sans Mono';-inkscape-font-specification:'DejaVu Sans Mono';letter-spacing:0.92357385px;word-spacing:0px;fill:#393939;fill-opacity:1;stroke:none;stroke-width:2.69150257"
         d="M -1988.3153,-521.60533 -1988.3153,-516.87417 -2030.2123,-516.87417 -2030.2123,-516.55897 Q -2030.2123,-506.93893 -2025.2183,-501.68209 -2020.1717,-496.42525 -2011.0249,-496.42525 -2006.3988,-496.42525 -2001.3523,-497.89717 -1996.3057,-499.36909 -1990.5757,-502.36549 L -1990.5757,-492.74549 Q -1996.0954,-490.48505 -2001.2471,-489.38109 -2006.3463,-488.22461 -2011.13,-488.22461 -2024.8503,-488.22461 -2032.5779,-496.42525 -2040.3055,-504.67849 -2040.3055,-519.13481 -2040.3055,-533.22317 -2032.7356,-541.63409 -2025.1657,-550.04505 -2012.5493,-550.04505 -2001.2997,-550.04505 -1994.8338,-542.42261 -1988.3153,-534.80021 -1988.3153,-521.60553 Z M -1997.9879,-524.44401 Q -1998.1983,-532.96013 -2002.0357,-537.37585 -2005.8206,-541.84417 -2012.9699,-541.84417 -2019.9615,-541.84417 -2024.4823,-537.21817 -2029.0032,-532.59213 -2029.8443,-524.39145 Z" />
      <path
         inkscape:connector-curvature="0"
         id="path4872"
         style="font-style:normal;font-variant:normal;font-weight:normal;font-stretch:normal;font-size:26.91502571px;line-height:1.25;font-family:'DejaVu Sans Mono';-inkscape-font-specification:'DejaVu Sans Mono';letter-spacing:0.92357385px;word-spacing:0px;fill:#393939;fill-opacity:1;stroke:none;stroke-width:2.69150257"
         d="M -1923.0634,-526.23137 -1923.0634,-489.74889 -1932.7885,-489.74889 -1932.7885,-526.23137 Q -1932.7885,-534.16917 -1935.5747,-537.90153 -1938.3608,-541.63389 -1944.301,-541.63389 -1951.0823,-541.63389 -1954.7621,-536.79761 -1958.3893,-532.01389 -1958.3893,-523.02469 L -1958.3893,-489.74889 -1968.0619,-489.74889 -1968.0619,-548.62549 -1958.3893,-548.62549 -1958.3893,-539.79401 Q -1955.8135,-544.84057 -1951.3977,-547.41641 -1946.982,-550.04485 -1940.9366,-550.04485 -1931.9475,-550.04485 -1927.5317,-544.10461 -1923.0634,-538.21697 -1923.0634,-526.23137 Z" />
      <path
         inkscape:connector-curvature="0"
         id="path4874"
         style="font-style:normal;font-variant:normal;font-weight:normal;font-stretch:normal;font-size:26.91502571px;line-height:1.25;font-family:'DejaVu Sans Mono';-inkscape-font-specification:'DejaVu Sans Mono';letter-spacing:0.92357385px;word-spacing:0px;fill:#393939;fill-opacity:1;stroke:none;stroke-width:2.69150257"
         d="M -1872.9512,-519.34489 -1876.1579,-519.34489 Q -1884.6214,-519.34489 -1888.932,-516.34849 -1893.19,-513.40465 -1893.19,-507.51701 -1893.19,-502.20761 -1889.9833,-499.26377 -1886.7767,-496.31993 -1881.0993,-496.31993 -1873.1089,-496.31993 -1868.5354,-501.83961 -1863.962,-507.41185 -1863.9094,-517.18957 L -1863.9094,-519.34489 Z M -1854.1843,-523.34009 -1854.1843,-489.74889 -1863.9094,-489.74889 -1863.9094,-498.47525 Q -1867.0109,-493.21841 -1871.7421,-490.69509 -1876.4207,-488.22441 -1883.1495,-488.22441 -1892.1387,-488.22441 -1897.5006,-493.27097 -1902.8626,-498.37009 -1902.8626,-506.88617 -1902.8626,-516.71649 -1896.2915,-521.81561 -1889.6679,-526.91473 -1876.8938,-526.91473 L -1863.9094,-526.91473 -1863.9094,-528.43921 Q -1863.9614,-535.48341 -1867.4841,-538.63749 -1871.0061,-541.84417 -1878.7337,-541.84417 -1883.6751,-541.84417 -1888.7217,-540.42481 -1893.7683,-539.00549 -1898.552,-536.27193 L -1898.552,-545.94449 Q -1893.19,-547.99469 -1888.3011,-548.99349 -1883.3597,-550.04485 -1878.7337,-550.04485 -1871.4267,-550.04485 -1866.275,-547.88953 -1861.0707,-545.73425 -1857.8641,-541.42361 -1855.8665,-538.79521 -1855.0253,-534.90513 -1854.1843,-531.06765 -1854.1843,-523.34009 Z" />
      <path
         inkscape:connector-curvature="0"
         id="path4876"
         style="font-style:normal;font-variant:normal;font-weight:normal;font-stretch:normal;font-size:26.91502571px;line-height:1.25;font-family:'DejaVu Sans Mono';-inkscape-font-specification:'DejaVu Sans Mono';letter-spacing:0.92357385px;word-spacing:0px;fill:#393939;fill-opacity:1;stroke:none;stroke-width:2.69150257"
         d="M -1793.1378,-519.13461 Q -1793.1378,-530.38425 -1796.7125,-536.11421 -1800.2871,-541.84417 -1807.2787,-541.84417 -1814.3229,-541.84417 -1817.9501,-536.06165 -1821.5773,-530.33169 -1821.5773,-519.13461 -1821.5773,-507.99013 -1817.9501,-502.20761 -1814.3229,-496.42505 -1807.2787,-496.42505 -1800.2871,-496.42505 -1796.7125,-502.15501 -1793.1378,-507.88497 -1793.1378,-519.13461 Z M -1821.5773,-541.10821 Q -1819.2643,-545.41881 -1815.2165,-547.73185 -1811.1162,-550.04485 -1805.7543,-550.04485 -1795.1354,-550.04485 -1789.0375,-541.84417 -1782.9395,-533.69605 -1782.9395,-519.34489 -1782.9395,-504.78345 -1789.0901,-496.47765 -1795.188,-488.22441 -1805.8594,-488.22441 -1811.1162,-488.22441 -1815.164,-490.48485 -1819.1592,-492.79785 -1821.5773,-497.16101 L -1821.5773,-489.74889 -1831.2499,-489.74889 -1831.2499,-571.54533 -1821.5773,-571.54533 Z" />
      <path
         inkscape:connector-curvature="0"
         id="path4878"
         style="font-style:normal;font-variant:normal;font-weight:normal;font-stretch:normal;font-size:26.91502571px;line-height:1.25;font-family:'DejaVu Sans Mono';-inkscape-font-specification:'DejaVu Sans Mono';letter-spacing:0.92357385px;word-spacing:0px;fill:#393939;fill-opacity:1;stroke:none;stroke-width:2.69150257"
         d="M -1745.5014,-511.09165 Q -1745.5014,-504.57317 -1743.1359,-501.26137 -1740.7177,-497.94953 -1736.0391,-497.94953 L -1724.7369,-497.94953 -1724.7369,-489.74889 -1736.9853,-489.74889 Q -1745.6591,-489.74889 -1750.4429,-495.32113 -1755.174,-500.89337 -1755.174,-511.09165 L -1755.174,-564.55373 -1770.6817,-564.55373 -1770.6817,-572.12357 -1745.5014,-572.12357 Z" />
      <path
         inkscape:connector-curvature="0"
         id="path4880"
         style="font-style:normal;font-variant:normal;font-weight:normal;font-stretch:normal;font-size:26.91502571px;line-height:1.25;font-family:'DejaVu Sans Mono';-inkscape-font-specification:'DejaVu Sans Mono';letter-spacing:0.92357385px;word-spacing:0px;fill:#393939;fill-opacity:1;stroke:none;stroke-width:2.69150257"
         d="M -1655.4926,-521.60533 -1655.4926,-516.87417 -1697.3896,-516.87417 -1697.3896,-516.55897 Q -1697.3896,-506.93893 -1692.3956,-501.68209 -1687.3491,-496.42525 -1678.2022,-496.42525 -1673.5761,-496.42525 -1668.5296,-497.89717 -1663.483,-499.36909 -1657.7531,-502.36549 L -1657.7531,-492.74549 Q -1663.2727,-490.48505 -1668.4244,-489.38109 -1673.5236,-488.22461 -1678.3073,-488.22461 -1692.0277,-488.22461 -1699.7552,-496.42525 -1707.4828,-504.67849 -1707.4828,-519.13481 -1707.4828,-533.22317 -1699.9129,-541.63409 -1692.3431,-550.04505 -1679.7267,-550.04505 -1668.477,-550.04505 -1662.0111,-542.42261 -1655.4926,-534.80021 -1655.4926,-521.60553 Z M -1665.1652,-524.44401 Q -1665.3756,-532.96013 -1669.213,-537.37585 -1672.9979,-541.84417 -1680.1472,-541.84417 -1687.1388,-541.84417 -1691.6597,-537.21817 -1696.1805,-532.59213 -1697.0217,-524.39145 Z" />
      <path
         inkscape:connector-curvature="0"
         id="path4882"
         style="font-style:normal;font-variant:normal;font-weight:normal;font-stretch:normal;font-size:26.91502571px;line-height:1.25;font-family:'DejaVu Sans Mono';-inkscape-font-specification:'DejaVu Sans Mono';letter-spacing:0.92357385px;word-spacing:0px;fill:#393939;fill-opacity:1;stroke:none;stroke-width:2.69150257"
         d="M -1589.5447,-531.75105 Q -1581.8171,-529.70085 -1577.7168,-524.44401 -1573.6165,-519.23977 -1573.6165,-511.40705 -1573.6165,-500.57797 -1580.9235,-494.37489 -1588.1779,-488.22441 -1601.0572,-488.22441 -1606.4717,-488.22441 -1612.0965,-489.22321 -1617.7213,-490.22201 -1623.1359,-492.11445 L -1623.1359,-502.68069 Q -1617.7739,-499.89457 -1612.5697,-498.52781 -1607.3654,-497.16101 -1602.2137,-497.16101 -1593.4873,-497.16101 -1588.8087,-501.10365 -1584.1301,-505.04629 -1584.1301,-512.45845 -1584.1301,-519.29233 -1588.8087,-523.28753 -1593.4873,-527.33529 -1601.4777,-527.33529 L -1609.5733,-527.33529 -1609.5733,-536.06165 -1601.4777,-536.06165 Q -1594.1707,-536.06165 -1590.0704,-539.26833 -1585.97,-542.47501 -1585.97,-548.20493 -1585.97,-554.25033 -1589.8075,-557.45697 -1593.5925,-560.71625 -1600.6366,-560.71625 -1605.3152,-560.71625 -1610.3092,-559.66485 -1615.3032,-558.61349 -1620.7703,-556.51077 L -1620.7703,-566.28849 Q -1614.4095,-567.97069 -1609.4681,-568.81177 -1604.4741,-569.65285 -1600.6366,-569.65285 -1589.1767,-569.65285 -1582.3428,-563.87033 -1575.4563,-558.14037 -1575.4563,-548.62549 -1575.4563,-542.15957 -1579.0836,-537.84897 -1582.6582,-533.53837 -1589.5447,-531.75105 Z" />
      <path
         inkscape:connector-curvature="0"
         id="path4884"
         style="font-style:normal;font-variant:normal;font-weight:normal;font-stretch:normal;font-size:26.91502571px;line-height:1.25;font-family:'DejaVu Sans Mono';-inkscape-font-specification:'DejaVu Sans Mono';letter-spacing:0.92357385px;word-spacing:0px;fill:#393939;fill-opacity:1;stroke:none;stroke-width:2.69150257"
         d="M -1522.4576,-541.10821 -1522.4576,-571.54533 -1512.785,-571.54533 -1512.785,-489.74889 -1522.4576,-489.74889 -1522.4576,-497.16101 Q -1524.8757,-492.79785 -1528.9235,-490.48485 -1532.9187,-488.22441 -1538.1756,-488.22441 -1548.8469,-488.22441 -1554.9975,-496.47765 -1561.0954,-504.78345 -1561.0954,-519.34489 -1561.0954,-533.69605 -1554.9449,-541.84417 -1548.7944,-550.04485 -1538.1756,-550.04485 -1532.8661,-550.04485 -1528.8184,-547.73185 -1524.7706,-545.47141 -1522.4576,-541.10821 Z M -1550.8971,-519.13461 Q -1550.8971,-507.88497 -1547.3225,-502.15501 -1543.7478,-496.42505 -1536.7562,-496.42505 -1529.7646,-496.42505 -1526.1374,-502.20761 -1522.4576,-507.99013 -1522.4576,-519.13461 -1522.4576,-530.33169 -1526.1374,-536.06165 -1529.7646,-541.84417 -1536.7562,-541.84417 -1543.7478,-541.84417 -1547.3225,-536.11421 -1550.8971,-530.38425 -1550.8971,-519.13461 Z" />
    </g>
  </g>
</svg>
